<svg xmlns="http://www.w3.org/2000/svg" xmlns:xlink="http://www.w3.org/1999/xlink" width="2560" zoomAndPan="magnify" viewBox="0 0 1920 1199.999942" height="1600" preserveAspectRatio="xMidYMid meet" version="1.2"><defs><clipPath id="9c2cc1e366"><path d="M 332.59375 401.578125 L 616.84375 401.578125 L 616.84375 798.328125 L 332.59375 798.328125 Z M 332.59375 401.578125 "/></clipPath><clipPath id="758f715385"><path d="M 418.648438 582 L 529.648438 582 L 529.648438 727 L 418.648438 727 Z M 418.648438 582 "/></clipPath><clipPath id="a4fafaa2f2"><path d="M 418.648438 632 L 529.648438 632 L 529.648438 776.898438 L 418.648438 776.898438 Z M 418.648438 632 "/></clipPath><clipPath id="e9c9ce08a3"><path d="M 395.382812 621.761719 L 437.460938 621.761719 L 437.460938 654.207031 L 395.382812 654.207031 Z M 395.382812 621.761719 "/></clipPath><clipPath id="c54624e452"><path d="M 395.46875 637.984375 L 416.464844 654.207031 L 416.464844 643.707031 L 437.460938 643.707031 L 437.460938 632.261719 L 416.464844 632.261719 L 416.464844 621.761719 Z M 395.46875 637.984375 "/></clipPath></defs><g id="e57f66510c"><g clip-rule="nonzero" clip-path="url(#9c2cc1e366)"><path style=" stroke:none;fill-rule:nonzero;fill:#004de8;fill-opacity:1;" d="M 610.417969 738.46875 C 606.71875 705.390625 602.113281 664.226562 597.824219 631.75 C 590.195312 573.957031 587.316406 571.820312 585.214844 570.265625 C 583.902344 569.289062 581.699219 567.65625 546.878906 566.296875 C 544.355469 566.199219 541.722656 566.105469 538.996094 566.015625 C 538.671875 552.359375 537.691406 538.074219 533.839844 524.726562 C 531.089844 515.199219 525.023438 506.847656 516.28125 500.503906 C 515.363281 498.375 514.398438 496.269531 513.382812 494.191406 C 518.976562 488.480469 521.890625 481.84375 522.03125 474.417969 C 522.347656 457.613281 508.546875 443.109375 504.308594 439.066406 C 494.125 429.347656 483.460938 422.113281 468.648438 414.875 L 442.765625 402.226562 C 442.335938 402.011719 441.882812 401.890625 441.40625 401.859375 C 440.929688 401.824219 440.460938 401.886719 440.007812 402.042969 C 439.554688 402.195312 439.148438 402.429688 438.789062 402.746094 C 438.429688 403.0625 438.144531 403.4375 437.933594 403.867188 C 437.722656 404.296875 437.601562 404.753906 437.574219 405.230469 C 437.546875 405.710938 437.609375 406.175781 437.765625 406.628906 C 437.921875 407.082031 438.160156 407.484375 438.480469 407.84375 C 438.800781 408.199219 439.175781 408.484375 439.605469 408.691406 L 465.488281 421.34375 C 479.597656 428.238281 489.722656 435.097656 499.339844 444.273438 C 510.972656 455.375 514.972656 467.054688 514.835938 474.28125 C 514.746094 479.0625 513.058594 483.457031 509.824219 487.394531 C 505.878906 480.332031 501.359375 473.652344 496.273438 467.363281 C 495.972656 466.992188 495.613281 466.691406 495.191406 466.464844 C 494.773438 466.234375 494.328125 466.097656 493.851562 466.046875 C 493.378906 465.996094 492.910156 466.039062 492.453125 466.175781 C 491.996094 466.308594 491.582031 466.527344 491.210938 466.828125 C 490.839844 467.128906 490.539062 467.488281 490.3125 467.90625 C 490.085938 468.328125 489.945312 468.773438 489.894531 469.246094 C 489.84375 469.722656 489.886719 470.1875 490.023438 470.644531 C 490.15625 471.105469 490.375 471.519531 490.675781 471.890625 C 498.59375 481.675781 505.011719 492.363281 509.929688 503.949219 C 511.53125 507.714844 512.609375 510.859375 512.679688 513.976562 C 512.753906 517.144531 511.589844 519.996094 509.636719 521.421875 C 506.921875 523.402344 502.855469 522.726562 500.027344 521.183594 C 496.421875 519.203125 493.542969 515.738281 490.765625 512.386719 C 490.316406 511.847656 489.761719 511.46875 489.09375 511.257812 C 488.425781 511.042969 487.753906 511.023438 487.078125 511.203125 C 486.398438 511.382812 485.824219 511.730469 485.347656 512.242188 C 484.875 512.757812 484.574219 513.359375 484.453125 514.050781 C 484.351562 514.605469 484.210938 515.148438 484.019531 515.679688 C 483.828125 516.210938 483.597656 516.71875 483.324219 517.210938 C 483.046875 517.703125 482.734375 518.167969 482.382812 518.609375 C 482.027344 519.046875 481.640625 519.453125 481.222656 519.828125 C 480.800781 520.203125 480.351562 520.539062 479.875 520.839844 C 479.398438 521.140625 478.898438 521.398438 478.378906 521.613281 C 477.859375 521.832031 477.324219 522.003906 476.777344 522.128906 C 476.226562 522.257812 475.671875 522.335938 475.109375 522.371094 C 474.546875 522.40625 473.984375 522.390625 473.425781 522.332031 C 472.863281 522.273438 472.3125 522.167969 471.769531 522.015625 C 471.226562 521.863281 470.703125 521.667969 470.191406 521.429688 C 469.683594 521.1875 469.195312 520.910156 468.734375 520.585938 C 468.269531 520.265625 467.835938 519.910156 467.433594 519.515625 C 467.03125 519.121094 466.664062 518.699219 466.332031 518.242188 C 466 517.789062 465.707031 517.308594 465.453125 516.804688 C 465.199219 516.300781 464.992188 515.78125 464.828125 515.242188 C 464.707031 514.851562 464.523438 514.488281 464.28125 514.160156 C 464.035156 513.828125 463.742188 513.546875 463.402344 513.316406 C 463.0625 513.089844 462.691406 512.921875 462.296875 512.816406 C 461.898438 512.714844 461.496094 512.679688 461.085938 512.714844 C 460.675781 512.746094 460.285156 512.847656 459.910156 513.019531 C 459.535156 513.1875 459.199219 513.414062 458.902344 513.695312 C 458.605469 513.980469 458.363281 514.304688 458.175781 514.671875 C 457.992188 515.039062 457.871094 515.425781 457.820312 515.832031 C 457.339844 519.5 453.007812 521.964844 449.4375 521.890625 C 444.152344 521.773438 439.808594 517.902344 437.6875 515.609375 C 435.847656 513.613281 431.554688 507.292969 431.039062 506.5 C 430.191406 505.191406 429.316406 503.84375 428.40625 502.519531 C 427.414062 501.074219 426.5 499.71875 425.636719 498.441406 C 417.875 486.960938 413.980469 481.195312 398.613281 474.910156 C 398.171875 474.730469 397.710938 474.640625 397.234375 474.644531 C 396.757812 474.644531 396.300781 474.738281 395.859375 474.921875 C 395.421875 475.109375 395.03125 475.371094 394.695312 475.707031 C 394.359375 476.046875 394.101562 476.4375 393.921875 476.878906 C 393.742188 477.320312 393.652344 477.78125 393.652344 478.257812 C 393.65625 478.734375 393.75 479.191406 393.933594 479.632812 C 394.117188 480.074219 394.378906 480.460938 394.71875 480.796875 C 395.058594 481.132812 395.445312 481.390625 395.886719 481.570312 C 409.238281 487.03125 412.078125 491.238281 419.671875 502.472656 C 420.542969 503.761719 421.472656 505.132812 422.472656 506.59375 C 423.328125 507.839844 425.113281 510.585938 425.167969 510.671875 C 423.8125 512.421875 422.566406 514.246094 421.425781 516.140625 C 412.75 530.5625 410.390625 546.488281 409.878906 565.699219 C 406.25 565.8125 402.789062 565.933594 399.527344 566.066406 C 364.238281 567.5 361.820312 569.746094 360.378906 571.089844 C 358.632812 572.710938 355.996094 575.167969 350 626.234375 C 346.582031 655.351562 342.980469 692.390625 339.800781 725.066406 C 337.125 752.574219 334.601562 778.558594 332.726562 794.066406 C 332.699219 794.320312 332.695312 794.574219 332.71875 794.828125 C 332.738281 795.082031 332.789062 795.328125 332.867188 795.570312 C 332.941406 795.8125 333.042969 796.046875 333.167969 796.269531 C 333.292969 796.488281 333.4375 796.695312 333.609375 796.886719 C 333.777344 797.078125 333.964844 797.246094 334.167969 797.398438 C 334.375 797.550781 334.59375 797.675781 334.824219 797.78125 C 335.054688 797.886719 335.296875 797.964844 335.546875 798.019531 C 335.792969 798.070312 336.046875 798.097656 336.300781 798.097656 L 336.316406 798.097656 L 613.148438 797.007812 C 613.402344 797.003906 613.65625 796.976562 613.902344 796.921875 C 614.152344 796.867188 614.394531 796.789062 614.625 796.683594 C 614.855469 796.578125 615.074219 796.449219 615.28125 796.296875 C 615.484375 796.144531 615.671875 795.972656 615.839844 795.78125 C 616.007812 795.589844 616.152344 795.382812 616.277344 795.160156 C 616.402344 794.9375 616.5 794.703125 616.574219 794.460938 C 616.648438 794.214844 616.699219 793.96875 616.71875 793.714844 C 616.742188 793.460938 616.734375 793.207031 616.703125 792.953125 C 615.121094 780.507812 612.941406 761.027344 610.417969 738.46875 Z M 427.59375 519.847656 C 428.1875 518.855469 428.820312 517.898438 429.476562 516.960938 C 430.386719 518.171875 431.351562 519.355469 432.398438 520.488281 C 437.398438 525.902344 443.390625 528.957031 449.28125 529.085938 C 450.441406 529.109375 451.59375 529.007812 452.734375 528.785156 C 453.871094 528.5625 454.976562 528.222656 456.042969 527.761719 C 457.109375 527.300781 458.113281 526.734375 459.058594 526.058594 C 460.003906 525.382812 460.867188 524.617188 461.648438 523.753906 C 462.519531 524.71875 463.488281 525.578125 464.550781 526.328125 C 465.613281 527.082031 466.746094 527.707031 467.949219 528.207031 C 469.148438 528.707031 470.390625 529.074219 471.671875 529.300781 C 472.953125 529.527344 474.246094 529.609375 475.546875 529.550781 C 481.0625 529.214844 486.132812 526.019531 489.09375 521.449219 C 491.261719 523.863281 493.753906 525.878906 496.570312 527.496094 C 499.332031 529.035156 502.292969 529.820312 505.453125 529.847656 C 506.960938 529.871094 508.433594 529.660156 509.875 529.214844 C 511.316406 528.769531 512.652344 528.109375 513.882812 527.238281 C 517.765625 524.402344 520.007812 519.386719 519.875 513.816406 C 519.875 513.71875 519.867188 513.628906 519.863281 513.535156 C 523.15625 517.429688 525.507812 521.824219 526.925781 526.722656 C 529.898438 537.03125 531.34375 548.539062 531.789062 565.800781 C 514.289062 565.308594 493.761719 565.011719 473.300781 564.957031 C 452.882812 564.90625 433.542969 565.097656 417.09375 565.503906 C 417.828125 541 421.832031 529.421875 427.59375 519.847656 Z M 340.351562 790.882812 C 342.15625 775.210938 344.402344 752.136719 346.964844 725.761719 C 350.070312 693.855469 353.585938 657.695312 356.929688 628.953125 C 361.703125 587.933594 364.292969 578.535156 365.324219 576.433594 C 366.824219 575.871094 373.464844 574.273438 401.542969 573.1875 C 404.164062 573.085938 406.914062 572.988281 409.769531 572.902344 C 409.714844 582.414062 409.980469 593.085938 410.285156 605.222656 L 410.355469 608.066406 C 410.367188 608.535156 410.46875 608.984375 410.65625 609.414062 C 410.84375 609.84375 411.105469 610.222656 411.441406 610.550781 C 411.777344 610.878906 412.160156 611.132812 412.597656 611.308594 C 413.03125 611.484375 413.484375 611.574219 413.953125 611.574219 L 414.042969 611.574219 C 414.519531 611.5625 414.976562 611.460938 415.414062 611.265625 C 415.851562 611.074219 416.234375 610.804688 416.5625 610.457031 C 416.890625 610.113281 417.140625 609.714844 417.3125 609.269531 C 417.484375 608.824219 417.5625 608.363281 417.550781 607.886719 L 417.480469 605.042969 C 417.175781 592.863281 416.90625 582.164062 416.96875 572.703125 C 433.429688 572.292969 452.871094 572.101562 473.3125 572.152344 C 495.648438 572.210938 515.503906 572.527344 531.921875 572.996094 C 531.996094 579.636719 531.972656 586.738281 531.945312 594.773438 C 531.933594 598.390625 531.921875 602.15625 531.914062 606.0625 C 531.914062 606.542969 532.003906 607 532.1875 607.441406 C 532.371094 607.882812 532.628906 608.273438 532.964844 608.609375 C 533.304688 608.949219 533.691406 609.207031 534.132812 609.390625 C 534.574219 609.574219 535.03125 609.667969 535.511719 609.667969 L 535.515625 609.667969 C 535.992188 609.667969 536.449219 609.574219 536.890625 609.394531 C 537.332031 609.210938 537.71875 608.949219 538.058594 608.613281 C 538.394531 608.277344 538.65625 607.886719 538.835938 607.449219 C 539.019531 607.007812 539.113281 606.546875 539.113281 606.070312 C 539.117188 602.164062 539.125 598.40625 539.144531 594.796875 C 539.171875 586.851562 539.195312 579.820312 539.121094 573.21875 C 562.164062 573.984375 577.132812 575.0625 580.78125 576.085938 C 581.972656 578.503906 585.003906 589.1875 591.011719 635.113281 C 595.195312 667.089844 599.671875 707.109375 603.265625 739.269531 C 605.535156 759.554688 607.527344 777.351562 609.0625 789.824219 Z M 340.351562 790.882812 "/></g><g clip-rule="nonzero" clip-path="url(#758f715385)"><path style=" stroke:none;fill-rule:evenodd;fill:#b000eb;fill-opacity:1;" d="M 501.339844 598.035156 C 502.375 598.035156 503.292969 597.636719 503.96875 596.957031 C 504.644531 596.28125 505.042969 595.363281 505.042969 594.328125 C 505.042969 593.289062 504.644531 592.375 503.96875 591.695312 C 503.292969 591.019531 502.375 590.621094 501.339844 590.621094 C 500.304688 590.621094 499.390625 591.019531 498.714844 591.695312 C 498.035156 592.375 497.636719 593.289062 497.636719 594.328125 C 497.636719 595.363281 498.035156 596.28125 498.714844 596.957031 C 499.390625 597.636719 500.304688 598.035156 501.339844 598.035156 Z M 438.238281 715.039062 L 462.441406 715.039062 L 455.914062 726.402344 L 418.648438 726.402344 L 423.546875 717.871094 L 458.78125 656.757812 L 459.976562 654.683594 L 466.265625 643.800781 L 472.792969 632.4375 L 484.023438 612.984375 L 490.988281 600.863281 C 489.796875 598.953125 489.078125 596.71875 489.078125 594.285156 C 489.078125 590.898438 490.433594 587.867188 492.660156 585.636719 C 494.890625 583.402344 497.917969 582.046875 501.300781 582.046875 C 504.683594 582.046875 507.710938 583.402344 509.941406 585.636719 C 512.171875 587.867188 513.523438 590.898438 513.523438 594.285156 C 513.523438 597.675781 512.171875 600.707031 509.941406 602.9375 C 507.710938 605.171875 504.683594 606.527344 501.300781 606.527344 C 501.140625 606.527344 500.941406 606.527344 500.785156 606.527344 L 485.855469 632.4375 L 479.324219 643.800781 L 469.769531 660.34375 L 469.769531 660.382812 Z M 529.648438 715.039062 L 488.519531 715.039062 L 481.992188 726.402344 L 529.648438 726.402344 Z M 529.648438 715.039062 "/></g><g clip-rule="nonzero" clip-path="url(#a4fafaa2f2)"><path style=" stroke:none;fill-rule:evenodd;fill:#004de8;fill-opacity:1;" d="M 446.996094 760.804688 C 445.960938 760.804688 445.042969 761.203125 444.367188 761.882812 C 443.691406 762.558594 443.292969 763.476562 443.292969 764.511719 C 443.292969 765.550781 443.691406 766.464844 444.367188 767.144531 C 445.042969 767.820312 445.960938 768.222656 446.996094 768.222656 C 448.03125 768.222656 448.945312 767.820312 449.625 767.144531 C 450.300781 766.464844 450.699219 765.550781 450.699219 764.511719 C 450.699219 763.476562 450.300781 762.558594 449.625 761.882812 C 448.945312 761.203125 447.992188 760.804688 446.996094 760.804688 Z M 492.382812 632.4375 L 529.648438 632.4375 L 524.75 640.96875 L 488.320312 704.15625 L 482.03125 715.039062 L 475.460938 726.402344 L 457.265625 757.933594 C 458.460938 759.847656 459.179688 762.082031 459.179688 764.511719 C 459.179688 767.902344 457.824219 770.929688 455.59375 773.164062 C 453.367188 775.398438 450.339844 776.75 446.957031 776.75 C 443.570312 776.75 440.546875 775.398438 438.316406 773.164062 C 436.085938 770.929688 434.734375 767.902344 434.734375 764.511719 C 434.734375 761.125 436.085938 758.09375 438.316406 755.863281 C 440.546875 753.628906 443.570312 752.273438 446.957031 752.273438 C 447.113281 752.273438 447.3125 752.273438 447.472656 752.273438 L 462.402344 726.363281 L 468.933594 715 L 474.386719 705.550781 L 476.496094 701.84375 L 478.449219 698.457031 L 478.449219 698.496094 L 509.980469 643.800781 L 485.773438 643.800781 Z M 446.996094 643.800781 L 459.777344 643.800781 L 466.304688 632.4375 L 418.648438 632.4375 L 418.648438 643.800781 Z M 446.996094 643.800781 "/></g><g clip-rule="nonzero" clip-path="url(#e9c9ce08a3)"><g clip-rule="nonzero" clip-path="url(#c54624e452)"><path style=" stroke:none;fill-rule:nonzero;fill:#004de8;fill-opacity:1;" d="M 437.460938 654.207031 L 395.511719 654.207031 L 395.511719 621.761719 L 437.460938 621.761719 Z M 437.460938 654.207031 "/></g></g><g style="fill:#000000;fill-opacity:1;"><g transform="translate(661.356306, 648.50997)"><path style="stroke:none" d="M 76.75 -95.03125 L 76.75 -76.484375 L 51.578125 -76.484375 L 51.578125 0 L 28.421875 0 L 28.421875 -76.484375 L 3.25 -76.484375 L 3.25 -95.03125 Z M 76.75 -95.03125 "/></g></g><g style="fill:#000000;fill-opacity:1;"><g transform="translate(748.13172, 648.50997)"><path style="stroke:none" d="M 56.859375 0 L 37.09375 -35.875 L 31.546875 -35.875 L 31.546875 0 L 8.390625 0 L 8.390625 -95.03125 L 47.25 -95.03125 C 54.738281 -95.03125 61.125 -93.722656 66.40625 -91.109375 C 71.6875 -88.492188 75.632812 -84.90625 78.25 -80.34375 C 80.863281 -75.789062 82.171875 -70.710938 82.171875 -65.109375 C 82.171875 -58.796875 80.390625 -53.15625 76.828125 -48.1875 C 73.265625 -43.226562 68.003906 -39.710938 61.046875 -37.640625 L 82.984375 0 Z M 31.546875 -52.25 L 45.890625 -52.25 C 50.128906 -52.25 53.3125 -53.285156 55.4375 -55.359375 C 57.5625 -57.441406 58.625 -60.378906 58.625 -64.171875 C 58.625 -67.773438 57.5625 -70.613281 55.4375 -72.6875 C 53.3125 -74.769531 50.128906 -75.8125 45.890625 -75.8125 L 31.546875 -75.8125 Z M 31.546875 -52.25 "/></g></g><g style="fill:#000000;fill-opacity:1;"><g transform="translate(843.165006, 648.50997)"><path style="stroke:none" d="M 67.546875 -16.78125 L 32.078125 -16.78125 L 26.390625 0 L 2.171875 0 L 36.546875 -95.03125 L 63.359375 -95.03125 L 97.734375 0 L 73.234375 0 Z M 61.59375 -34.65625 L 49.8125 -69.453125 L 38.171875 -34.65625 Z M 61.59375 -34.65625 "/></g></g><g style="fill:#000000;fill-opacity:1;"><g transform="translate(949.705165, 648.50997)"><path style="stroke:none" d="M 44 -95.03125 C 54.019531 -95.03125 62.773438 -93.046875 70.265625 -89.078125 C 77.753906 -85.109375 83.550781 -79.535156 87.65625 -72.359375 C 91.757812 -65.179688 93.8125 -56.898438 93.8125 -47.515625 C 93.8125 -38.222656 91.757812 -29.960938 87.65625 -22.734375 C 83.550781 -15.515625 77.726562 -9.921875 70.1875 -5.953125 C 62.65625 -1.984375 53.925781 0 44 0 L 8.390625 0 L 8.390625 -95.03125 Z M 42.5 -20.03125 C 51.257812 -20.03125 58.078125 -22.421875 62.953125 -27.203125 C 67.828125 -31.992188 70.265625 -38.765625 70.265625 -47.515625 C 70.265625 -56.265625 67.828125 -63.078125 62.953125 -67.953125 C 58.078125 -72.828125 51.257812 -75.265625 42.5 -75.265625 L 31.546875 -75.265625 L 31.546875 -20.03125 Z M 42.5 -20.03125 "/></g></g><g style="fill:#000000;fill-opacity:1;"><g transform="translate(1054.89158, 648.50997)"><path style="stroke:none" d="M 31.546875 -76.484375 L 31.546875 -57.265625 L 62.546875 -57.265625 L 62.546875 -39.390625 L 31.546875 -39.390625 L 31.546875 -18.546875 L 66.609375 -18.546875 L 66.609375 0 L 8.390625 0 L 8.390625 -95.03125 L 66.609375 -95.03125 L 66.609375 -76.484375 Z M 31.546875 -76.484375 "/></g></g><g style="fill:#000000;fill-opacity:1;"><g transform="translate(1134.898226, 648.50997)"><path style="stroke:none" d="M 71.484375 -64.984375 C 69.765625 -68.140625 67.300781 -70.550781 64.09375 -72.21875 C 60.894531 -73.894531 57.128906 -74.734375 52.796875 -74.734375 C 45.304688 -74.734375 39.300781 -72.269531 34.78125 -67.34375 C 30.269531 -62.425781 28.015625 -55.863281 28.015625 -47.65625 C 28.015625 -38.894531 30.382812 -32.054688 35.125 -27.140625 C 39.863281 -22.222656 46.382812 -19.765625 54.6875 -19.765625 C 60.375 -19.765625 65.179688 -21.207031 69.109375 -24.09375 C 73.035156 -26.976562 75.898438 -31.128906 77.703125 -36.546875 L 48.328125 -36.546875 L 48.328125 -53.609375 L 98.6875 -53.609375 L 98.6875 -32.078125 C 96.96875 -26.304688 94.054688 -20.9375 89.953125 -15.96875 C 85.847656 -11.007812 80.632812 -6.992188 74.3125 -3.921875 C 68 -0.859375 60.875 0.671875 52.9375 0.671875 C 43.550781 0.671875 35.175781 -1.378906 27.8125 -5.484375 C 20.457031 -9.585938 14.726562 -15.296875 10.625 -22.609375 C 6.519531 -29.921875 4.46875 -38.269531 4.46875 -47.65625 C 4.46875 -57.039062 6.519531 -65.410156 10.625 -72.765625 C 14.726562 -80.117188 20.4375 -85.847656 27.75 -89.953125 C 35.0625 -94.054688 43.410156 -96.109375 52.796875 -96.109375 C 64.171875 -96.109375 73.757812 -93.351562 81.5625 -87.84375 C 89.363281 -82.34375 94.53125 -74.722656 97.0625 -64.984375 Z M 71.484375 -64.984375 "/></g></g><g style="fill:#000000;fill-opacity:1;"><g transform="translate(1244.822792, 648.50997)"><path style="stroke:none" d="M 31.140625 -95.03125 L 31.140625 -38.171875 C 31.140625 -32.484375 32.535156 -28.101562 35.328125 -25.03125 C 38.128906 -21.96875 42.238281 -20.4375 47.65625 -20.4375 C 53.070312 -20.4375 57.222656 -21.96875 60.109375 -25.03125 C 62.992188 -28.101562 64.4375 -32.484375 64.4375 -38.171875 L 64.4375 -95.03125 L 87.59375 -95.03125 L 87.59375 -38.3125 C 87.59375 -29.820312 85.785156 -22.644531 82.171875 -16.78125 C 78.554688 -10.914062 73.703125 -6.492188 67.609375 -3.515625 C 61.523438 -0.535156 54.738281 0.953125 47.25 0.953125 C 39.757812 0.953125 33.054688 -0.515625 27.140625 -3.453125 C 21.234375 -6.390625 16.5625 -10.8125 13.125 -16.71875 C 9.695312 -22.625 7.984375 -29.820312 7.984375 -38.3125 L 7.984375 -95.03125 Z M 31.140625 -95.03125 "/></g></g><g style="fill:#000000;fill-opacity:1;"><g transform="translate(1347.030928, 648.50997)"><path style="stroke:none" d="M 89.890625 -95.03125 L 57 -31.40625 L 57 0 L 33.84375 0 L 33.84375 -31.40625 L 0.953125 -95.03125 L 27.203125 -95.03125 L 45.625 -55.234375 L 63.890625 -95.03125 Z M 89.890625 -95.03125 "/></g></g><g style="fill:#000000;fill-opacity:1;"><g transform="translate(1444.636388, 648.50997)"><path style="stroke:none" d="M 33.03125 -18.953125 L 73.921875 -18.953125 L 73.921875 0 L 6.765625 0 L 6.765625 -17.59375 L 47.375 -76.078125 L 6.765625 -76.078125 L 6.765625 -95.03125 L 73.921875 -95.03125 L 73.921875 -77.4375 Z M 33.03125 -18.953125 "/></g></g><g style="fill:#000000;fill-opacity:1;"><g transform="translate(705.545524, 736.960013)"><path style="stroke:none" d="M 21.625 -13.53125 L 26.28125 -13.53125 L 26.28125 -2.984375 C 24.914062 -1.898438 23.328125 -1.066406 21.515625 -0.484375 C 19.703125 0.0859375 17.835938 0.375 15.921875 0.375 C 13.222656 0.375 10.789062 -0.207031 8.625 -1.375 C 6.457031 -2.550781 4.753906 -4.171875 3.515625 -6.234375 C 2.273438 -8.304688 1.65625 -10.640625 1.65625 -13.234375 C 1.65625 -15.828125 2.273438 -18.15625 3.515625 -20.21875 C 4.753906 -22.289062 6.460938 -23.910156 8.640625 -25.078125 C 10.816406 -26.253906 13.269531 -26.84375 16 -26.84375 C 18.21875 -26.84375 20.234375 -26.476562 22.046875 -25.75 C 23.859375 -25.019531 25.382812 -23.945312 26.625 -22.53125 L 23.515625 -19.515625 C 21.503906 -21.523438 19.070312 -22.53125 16.21875 -22.53125 C 14.351562 -22.53125 12.695312 -22.140625 11.25 -21.359375 C 9.800781 -20.578125 8.664062 -19.476562 7.84375 -18.0625 C 7.019531 -16.65625 6.609375 -15.046875 6.609375 -13.234375 C 6.609375 -11.472656 7.019531 -9.882812 7.84375 -8.46875 C 8.664062 -7.0625 9.800781 -5.953125 11.25 -5.140625 C 12.695312 -4.335938 14.34375 -3.9375 16.1875 -3.9375 C 18.25 -3.9375 20.0625 -4.390625 21.625 -5.296875 Z M 21.625 -13.53125 "/></g></g><g style="fill:#000000;fill-opacity:1;"><g transform="translate(738.514461, 736.960013)"><path style="stroke:none" d="M 14.9375 0.375 C 11.28125 0.375 8.429688 -0.648438 6.390625 -2.703125 C 4.347656 -4.753906 3.328125 -7.695312 3.328125 -11.53125 L 3.328125 -26.46875 L 8.25 -26.46875 L 8.25 -11.71875 C 8.25 -6.53125 10.488281 -3.9375 14.96875 -3.9375 C 19.4375 -3.9375 21.671875 -6.53125 21.671875 -11.71875 L 21.671875 -26.46875 L 26.5 -26.46875 L 26.5 -11.53125 C 26.5 -7.695312 25.484375 -4.753906 23.453125 -2.703125 C 21.429688 -0.648438 18.59375 0.375 14.9375 0.375 Z M 14.9375 0.375 "/></g></g><g style="fill:#000000;fill-opacity:1;"><g transform="translate(772.126112, 736.960013)"><path style="stroke:none" d="M 14.96875 -9.34375 L 14.96875 0 L 10.0625 0 L 10.0625 -9.265625 L -0.34375 -26.46875 L 4.921875 -26.46875 L 12.671875 -13.578125 L 20.5 -26.46875 L 25.328125 -26.46875 Z M 14.96875 -9.34375 "/></g></g><g style="fill:#000000;fill-opacity:1;"><g transform="translate(800.898516, 736.960013)"><path style="stroke:none" d="M 20.71875 -6.125 L 7.484375 -6.125 L 4.875 0 L -0.1875 0 L 11.71875 -26.46875 L 16.5625 -26.46875 L 28.515625 0 L 23.375 0 Z M 19.09375 -9.984375 L 14.109375 -21.546875 L 9.15625 -9.984375 Z M 19.09375 -9.984375 "/></g></g><g style="fill:#000000;fill-opacity:1;"><g transform="translate(832.997892, 736.960013)"><path style="stroke:none" d="M 27.078125 -26.46875 L 27.078125 0 L 23.03125 0 L 8.4375 -17.921875 L 8.4375 0 L 3.546875 0 L 3.546875 -26.46875 L 7.59375 -26.46875 L 22.203125 -8.546875 L 22.203125 -26.46875 Z M 27.078125 -26.46875 "/></g></g><g style="fill:#000000;fill-opacity:1;"><g transform="translate(867.403489, 736.960013)"><path style="stroke:none" d="M 20.71875 -6.125 L 7.484375 -6.125 L 4.875 0 L -0.1875 0 L 11.71875 -26.46875 L 16.5625 -26.46875 L 28.515625 0 L 23.375 0 Z M 19.09375 -9.984375 L 14.109375 -21.546875 L 9.15625 -9.984375 Z M 19.09375 -9.984375 "/></g></g><g style="fill:#000000;fill-opacity:1;"><g transform="translate(899.502864, 736.960013)"><path style="stroke:none" d="M 4.65625 -28.328125 C 5.53125 -28.328125 6.257812 -28.035156 6.84375 -27.453125 C 7.425781 -26.867188 7.71875 -26.125 7.71875 -25.21875 C 7.71875 -24.769531 7.660156 -24.328125 7.546875 -23.890625 C 7.429688 -23.460938 7.207031 -22.820312 6.875 -21.96875 L 4.921875 -16.59375 L 1.859375 -16.59375 L 3.359375 -22.421875 C 2.804688 -22.617188 2.375 -22.960938 2.0625 -23.453125 C 1.75 -23.953125 1.59375 -24.539062 1.59375 -25.21875 C 1.59375 -26.125 1.878906 -26.867188 2.453125 -27.453125 C 3.035156 -28.035156 3.769531 -28.328125 4.65625 -28.328125 Z M 4.65625 -28.328125 "/></g></g><g style="fill:#000000;fill-opacity:1;"><g transform="translate(912.509887, 736.960013)"><path style="stroke:none" d="M 11.765625 0.375 C 9.722656 0.375 7.75 0.0859375 5.84375 -0.484375 C 3.9375 -1.066406 2.429688 -1.835938 1.328125 -2.796875 L 3.03125 -6.609375 C 4.113281 -5.753906 5.441406 -5.054688 7.015625 -4.515625 C 8.585938 -3.972656 10.171875 -3.703125 11.765625 -3.703125 C 13.722656 -3.703125 15.1875 -4.015625 16.15625 -4.640625 C 17.132812 -5.273438 17.625 -6.109375 17.625 -7.140625 C 17.625 -7.898438 17.351562 -8.523438 16.8125 -9.015625 C 16.269531 -9.503906 15.582031 -9.890625 14.75 -10.171875 C 13.914062 -10.453125 12.78125 -10.765625 11.34375 -11.109375 C 9.320312 -11.585938 7.6875 -12.066406 6.4375 -12.546875 C 5.195312 -13.023438 4.128906 -13.773438 3.234375 -14.796875 C 2.335938 -15.816406 1.890625 -17.195312 1.890625 -18.9375 C 1.890625 -20.40625 2.285156 -21.738281 3.078125 -22.9375 C 3.867188 -24.132812 5.066406 -25.082031 6.671875 -25.78125 C 8.273438 -26.488281 10.234375 -26.84375 12.546875 -26.84375 C 14.160156 -26.84375 15.75 -26.640625 17.3125 -26.234375 C 18.875 -25.835938 20.222656 -25.257812 21.359375 -24.5 L 19.8125 -20.6875 C 18.65625 -21.363281 17.445312 -21.878906 16.1875 -22.234375 C 14.925781 -22.585938 13.703125 -22.765625 12.515625 -22.765625 C 10.578125 -22.765625 9.132812 -22.4375 8.1875 -21.78125 C 7.238281 -21.125 6.765625 -20.253906 6.765625 -19.171875 C 6.765625 -18.410156 7.035156 -17.789062 7.578125 -17.3125 C 8.117188 -16.832031 8.804688 -16.453125 9.640625 -16.171875 C 10.472656 -15.898438 11.609375 -15.585938 13.046875 -15.234375 C 15.015625 -14.785156 16.628906 -14.3125 17.890625 -13.8125 C 19.148438 -13.320312 20.222656 -12.570312 21.109375 -11.5625 C 22.003906 -10.5625 22.453125 -9.203125 22.453125 -7.484375 C 22.453125 -6.023438 22.054688 -4.703125 21.265625 -3.515625 C 20.472656 -2.328125 19.269531 -1.378906 17.65625 -0.671875 C 16.039062 0.0234375 14.078125 0.375 11.765625 0.375 Z M 11.765625 0.375 "/></g></g><g style="fill:#000000;fill-opacity:1;"><g transform="translate(940.07248, 736.960013)"><path style="stroke:none" d=""/></g></g><g style="fill:#000000;fill-opacity:1;"><g transform="translate(954.289315, 736.960013)"><path style="stroke:none" d="M 15.921875 0.375 C 13.222656 0.375 10.789062 -0.207031 8.625 -1.375 C 6.457031 -2.550781 4.753906 -4.175781 3.515625 -6.25 C 2.273438 -8.332031 1.65625 -10.660156 1.65625 -13.234375 C 1.65625 -15.804688 2.273438 -18.128906 3.515625 -20.203125 C 4.753906 -22.285156 6.457031 -23.910156 8.625 -25.078125 C 10.789062 -26.253906 13.222656 -26.84375 15.921875 -26.84375 C 18.617188 -26.84375 21.050781 -26.253906 23.21875 -25.078125 C 25.382812 -23.910156 27.082031 -22.289062 28.3125 -20.21875 C 29.550781 -18.15625 30.171875 -15.828125 30.171875 -13.234375 C 30.171875 -10.640625 29.550781 -8.304688 28.3125 -6.234375 C 27.082031 -4.171875 25.382812 -2.550781 23.21875 -1.375 C 21.050781 -0.207031 18.617188 0.375 15.921875 0.375 Z M 15.921875 -3.9375 C 17.679688 -3.9375 19.265625 -4.332031 20.671875 -5.125 C 22.085938 -5.914062 23.195312 -7.023438 24 -8.453125 C 24.8125 -9.878906 25.21875 -11.472656 25.21875 -13.234375 C 25.21875 -14.992188 24.8125 -16.585938 24 -18.015625 C 23.195312 -19.441406 22.085938 -20.550781 20.671875 -21.34375 C 19.265625 -22.132812 17.679688 -22.53125 15.921875 -22.53125 C 14.148438 -22.53125 12.554688 -22.132812 11.140625 -21.34375 C 9.734375 -20.550781 8.625 -19.441406 7.8125 -18.015625 C 7.007812 -16.585938 6.609375 -14.992188 6.609375 -13.234375 C 6.609375 -11.472656 7.007812 -9.878906 7.8125 -8.453125 C 8.625 -7.023438 9.734375 -5.914062 11.140625 -5.125 C 12.554688 -4.332031 14.148438 -3.9375 15.921875 -3.9375 Z M 15.921875 -3.9375 "/></g></g><g style="fill:#000000;fill-opacity:1;"><g transform="translate(989.904723, 736.960013)"><path style="stroke:none" d="M 27.078125 -26.46875 L 27.078125 0 L 23.03125 0 L 8.4375 -17.921875 L 8.4375 0 L 3.546875 0 L 3.546875 -26.46875 L 7.59375 -26.46875 L 22.203125 -8.546875 L 22.203125 -26.46875 Z M 27.078125 -26.46875 "/></g></g><g style="fill:#000000;fill-opacity:1;"><g transform="translate(1024.31032, 736.960013)"><path style="stroke:none" d="M 3.546875 -26.46875 L 8.46875 -26.46875 L 8.46875 -4.15625 L 22.3125 -4.15625 L 22.3125 0 L 3.546875 0 Z M 3.546875 -26.46875 "/></g></g><g style="fill:#000000;fill-opacity:1;"><g transform="translate(1050.738717, 736.960013)"><path style="stroke:none" d="M 3.546875 -26.46875 L 8.46875 -26.46875 L 8.46875 0 L 3.546875 0 Z M 3.546875 -26.46875 "/></g></g><g style="fill:#000000;fill-opacity:1;"><g transform="translate(1066.581273, 736.960013)"><path style="stroke:none" d="M 27.078125 -26.46875 L 27.078125 0 L 23.03125 0 L 8.4375 -17.921875 L 8.4375 0 L 3.546875 0 L 3.546875 -26.46875 L 7.59375 -26.46875 L 22.203125 -8.546875 L 22.203125 -26.46875 Z M 27.078125 -26.46875 "/></g></g><g style="fill:#000000;fill-opacity:1;"><g transform="translate(1100.986869, 736.960013)"><path style="stroke:none" d="M 23.40625 -4.125 L 23.40625 0 L 3.546875 0 L 3.546875 -26.46875 L 22.875 -26.46875 L 22.875 -22.34375 L 8.46875 -22.34375 L 8.46875 -15.46875 L 21.25 -15.46875 L 21.25 -11.421875 L 8.46875 -11.421875 L 8.46875 -4.125 Z M 23.40625 -4.125 "/></g></g><g style="fill:#000000;fill-opacity:1;"><g transform="translate(1130.099524, 736.960013)"><path style="stroke:none" d=""/></g></g><g style="fill:#000000;fill-opacity:1;"><g transform="translate(1144.316359, 736.960013)"><path style="stroke:none" d="M 27.875 0 L 27.828125 -17.546875 L 19.140625 -3.03125 L 16.9375 -3.03125 L 8.25 -17.3125 L 8.25 0 L 3.546875 0 L 3.546875 -26.46875 L 7.59375 -26.46875 L 18.109375 -8.921875 L 28.4375 -26.46875 L 32.484375 -26.46875 L 32.515625 0 Z M 27.875 0 "/></g></g><g style="fill:#000000;fill-opacity:1;"><g transform="translate(1184.203916, 736.960013)"><path style="stroke:none" d="M 20.71875 -6.125 L 7.484375 -6.125 L 4.875 0 L -0.1875 0 L 11.71875 -26.46875 L 16.5625 -26.46875 L 28.515625 0 L 23.375 0 Z M 19.09375 -9.984375 L 14.109375 -21.546875 L 9.15625 -9.984375 Z M 19.09375 -9.984375 "/></g></g><g style="fill:#000000;fill-opacity:1;"><g transform="translate(1216.303292, 736.960013)"><path style="stroke:none" d="M 20.875 0 L 15.46875 -7.75 C 15.238281 -7.726562 14.894531 -7.71875 14.4375 -7.71875 L 8.46875 -7.71875 L 8.46875 0 L 3.546875 0 L 3.546875 -26.46875 L 14.4375 -26.46875 C 16.738281 -26.46875 18.738281 -26.085938 20.4375 -25.328125 C 22.132812 -24.578125 23.4375 -23.492188 24.34375 -22.078125 C 25.257812 -20.671875 25.71875 -18.992188 25.71875 -17.046875 C 25.71875 -15.054688 25.226562 -13.34375 24.25 -11.90625 C 23.28125 -10.46875 21.890625 -9.398438 20.078125 -8.703125 L 26.171875 0 Z M 20.765625 -17.046875 C 20.765625 -18.742188 20.207031 -20.046875 19.09375 -20.953125 C 17.988281 -21.859375 16.363281 -22.3125 14.21875 -22.3125 L 8.46875 -22.3125 L 8.46875 -11.765625 L 14.21875 -11.765625 C 16.363281 -11.765625 17.988281 -12.222656 19.09375 -13.140625 C 20.207031 -14.054688 20.765625 -15.359375 20.765625 -17.046875 Z M 20.765625 -17.046875 "/></g></g><g style="fill:#000000;fill-opacity:1;"><g transform="translate(1247.722167, 736.960013)"><path style="stroke:none" d="M 12.671875 -11.078125 L 8.46875 -6.765625 L 8.46875 0 L 3.546875 0 L 3.546875 -26.46875 L 8.46875 -26.46875 L 8.46875 -12.890625 L 21.546875 -26.46875 L 27.078125 -26.46875 L 15.953125 -14.640625 L 27.75 0 L 22 0 Z M 12.671875 -11.078125 "/></g></g><g style="fill:#000000;fill-opacity:1;"><g transform="translate(1279.065427, 736.960013)"><path style="stroke:none" d="M 23.40625 -4.125 L 23.40625 0 L 3.546875 0 L 3.546875 -26.46875 L 22.875 -26.46875 L 22.875 -22.34375 L 8.46875 -22.34375 L 8.46875 -15.46875 L 21.25 -15.46875 L 21.25 -11.421875 L 8.46875 -11.421875 L 8.46875 -4.125 Z M 23.40625 -4.125 "/></g></g><g style="fill:#000000;fill-opacity:1;"><g transform="translate(1308.178081, 736.960013)"><path style="stroke:none" d="M 8.921875 -22.3125 L 0.15625 -22.3125 L 0.15625 -26.46875 L 22.609375 -26.46875 L 22.609375 -22.3125 L 13.84375 -22.3125 L 13.84375 0 L 8.921875 0 Z M 8.921875 -22.3125 "/></g></g><g style="fill:#000000;fill-opacity:1;"><g transform="translate(1334.71988, 736.960013)"><path style="stroke:none" d="M 14.4375 -26.46875 C 16.738281 -26.46875 18.738281 -26.085938 20.4375 -25.328125 C 22.132812 -24.578125 23.4375 -23.492188 24.34375 -22.078125 C 25.257812 -20.671875 25.71875 -18.992188 25.71875 -17.046875 C 25.71875 -15.128906 25.257812 -13.457031 24.34375 -12.03125 C 23.4375 -10.613281 22.132812 -9.523438 20.4375 -8.765625 C 18.738281 -8.015625 16.738281 -7.640625 14.4375 -7.640625 L 8.46875 -7.640625 L 8.46875 0 L 3.546875 0 L 3.546875 -26.46875 Z M 14.21875 -11.796875 C 16.363281 -11.796875 17.988281 -12.25 19.09375 -13.15625 C 20.207031 -14.0625 20.765625 -15.359375 20.765625 -17.046875 C 20.765625 -18.742188 20.207031 -20.046875 19.09375 -20.953125 C 17.988281 -21.859375 16.363281 -22.3125 14.21875 -22.3125 L 8.46875 -22.3125 L 8.46875 -11.796875 Z M 14.21875 -11.796875 "/></g></g><g style="fill:#000000;fill-opacity:1;"><g transform="translate(1365.949694, 736.960013)"><path style="stroke:none" d="M 3.546875 -26.46875 L 8.46875 -26.46875 L 8.46875 -4.15625 L 22.3125 -4.15625 L 22.3125 0 L 3.546875 0 Z M 3.546875 -26.46875 "/></g></g><g style="fill:#000000;fill-opacity:1;"><g transform="translate(1392.378091, 736.960013)"><path style="stroke:none" d="M 20.71875 -6.125 L 7.484375 -6.125 L 4.875 0 L -0.1875 0 L 11.71875 -26.46875 L 16.5625 -26.46875 L 28.515625 0 L 23.375 0 Z M 19.09375 -9.984375 L 14.109375 -21.546875 L 9.15625 -9.984375 Z M 19.09375 -9.984375 "/></g></g><g style="fill:#000000;fill-opacity:1;"><g transform="translate(1424.477467, 736.960013)"><path style="stroke:none" d="M 15.8125 0.375 C 13.132812 0.375 10.71875 -0.207031 8.5625 -1.375 C 6.40625 -2.550781 4.710938 -4.171875 3.484375 -6.234375 C 2.265625 -8.304688 1.65625 -10.640625 1.65625 -13.234375 C 1.65625 -15.828125 2.273438 -18.15625 3.515625 -20.21875 C 4.753906 -22.289062 6.445312 -23.910156 8.59375 -25.078125 C 10.75 -26.253906 13.164062 -26.84375 15.84375 -26.84375 C 18.007812 -26.84375 19.988281 -26.460938 21.78125 -25.703125 C 23.570312 -24.953125 25.082031 -23.859375 26.3125 -22.421875 L 23.140625 -19.4375 C 21.222656 -21.5 18.863281 -22.53125 16.0625 -22.53125 C 14.25 -22.53125 12.625 -22.132812 11.1875 -21.34375 C 9.75 -20.550781 8.625 -19.445312 7.8125 -18.03125 C 7.007812 -16.625 6.609375 -15.023438 6.609375 -13.234375 C 6.609375 -11.441406 7.007812 -9.835938 7.8125 -8.421875 C 8.625 -7.015625 9.75 -5.914062 11.1875 -5.125 C 12.625 -4.332031 14.25 -3.9375 16.0625 -3.9375 C 18.863281 -3.9375 21.222656 -4.984375 23.140625 -7.078125 L 26.3125 -4.046875 C 25.082031 -2.609375 23.566406 -1.507812 21.765625 -0.75 C 19.960938 0 17.976562 0.375 15.8125 0.375 Z M 15.8125 0.375 "/></g></g><g style="fill:#000000;fill-opacity:1;"><g transform="translate(1455.74511, 736.960013)"><path style="stroke:none" d="M 23.40625 -4.125 L 23.40625 0 L 3.546875 0 L 3.546875 -26.46875 L 22.875 -26.46875 L 22.875 -22.34375 L 8.46875 -22.34375 L 8.46875 -15.46875 L 21.25 -15.46875 L 21.25 -11.421875 L 8.46875 -11.421875 L 8.46875 -4.125 Z M 23.40625 -4.125 "/></g></g></g></svg>