<svg xmlns="http://www.w3.org/2000/svg" xmlns:xlink="http://www.w3.org/1999/xlink" width="500" zoomAndPan="magnify" viewBox="0 0 375 374.999991" height="500" preserveAspectRatio="xMidYMid meet" version="1.2"><defs><clipPath id="bec70ffb3c"><path d="M 187.5 0 C 83.945312 0 0 83.945312 0 187.5 C 0 291.054688 83.945312 375 187.5 375 C 291.054688 375 375 291.054688 375 187.5 C 375 83.945312 291.054688 0 187.5 0 Z M 187.5 0 "/></clipPath><clipPath id="9b9b305eb1"><path d="M 83.363281 6 L 291.863281 6 L 291.863281 296.167969 L 83.363281 296.167969 Z M 83.363281 6 "/></clipPath><clipPath id="84920830a4"><path d="M 146.378906 138 L 227.378906 138 L 227.378906 244 L 146.378906 244 Z M 146.378906 138 "/></clipPath><clipPath id="7aa9a6edb0"><path d="M 146.378906 174 L 227.378906 174 L 227.378906 280.460938 L 146.378906 280.460938 Z M 146.378906 174 "/></clipPath><clipPath id="be5f5f05e7"><path d="M 129.347656 167.152344 L 160.160156 167.152344 L 160.160156 190.910156 L 129.347656 190.910156 Z M 129.347656 167.152344 "/></clipPath><clipPath id="42c41c9ccf"><path d="M 129.410156 179.03125 L 144.785156 190.910156 L 144.785156 183.222656 L 160.160156 183.222656 L 160.160156 174.839844 L 144.785156 174.839844 L 144.785156 167.152344 Z M 129.410156 179.03125 "/></clipPath></defs><g id="3b8df27079"><g clip-rule="nonzero" clip-path="url(#bec70ffb3c)"><rect x="0" width="375" y="0" height="374.999991" style="fill:#ffffff;fill-opacity:1;stroke:none;"/></g><g clip-rule="nonzero" clip-path="url(#9b9b305eb1)"><path style=" stroke:none;fill-rule:nonzero;fill:#004de8;fill-opacity:1;" d="M 286.683594 252.464844 C 283.976562 228.257812 280.605469 198.132812 277.46875 174.363281 C 271.886719 132.070312 269.777344 130.507812 268.242188 129.367188 C 267.277344 128.652344 265.667969 127.460938 240.183594 126.464844 C 238.335938 126.394531 236.410156 126.324219 234.417969 126.257812 C 234.179688 116.265625 233.460938 105.808594 230.644531 96.039062 C 228.628906 89.066406 224.191406 82.957031 217.792969 78.316406 C 217.121094 76.757812 216.414062 75.21875 215.671875 73.695312 C 219.765625 69.515625 221.898438 64.660156 222 59.226562 C 222.234375 46.925781 212.132812 36.3125 209.03125 33.351562 C 201.578125 26.242188 193.773438 20.945312 182.933594 15.648438 L 163.992188 6.390625 C 163.679688 6.234375 163.347656 6.144531 162.996094 6.121094 C 162.648438 6.097656 162.304688 6.144531 161.972656 6.257812 C 161.640625 6.371094 161.34375 6.542969 161.082031 6.773438 C 160.816406 7.003906 160.609375 7.277344 160.453125 7.59375 C 160.300781 7.910156 160.214844 8.242188 160.191406 8.589844 C 160.171875 8.941406 160.21875 9.28125 160.332031 9.613281 C 160.449219 9.945312 160.621094 10.242188 160.855469 10.503906 C 161.089844 10.765625 161.363281 10.972656 161.679688 11.125 L 180.621094 20.382812 C 190.945312 25.429688 198.355469 30.449219 205.394531 37.164062 C 213.90625 45.289062 216.835938 53.835938 216.734375 59.125 C 216.667969 62.625 215.433594 65.839844 213.066406 68.71875 C 210.179688 63.550781 206.871094 58.664062 203.148438 54.0625 C 202.929688 53.789062 202.664062 53.570312 202.359375 53.402344 C 202.050781 53.238281 201.726562 53.136719 201.378906 53.097656 C 201.03125 53.0625 200.6875 53.09375 200.355469 53.191406 C 200.019531 53.289062 199.714844 53.449219 199.445312 53.671875 C 199.171875 53.890625 198.953125 54.152344 198.789062 54.460938 C 198.621094 54.765625 198.519531 55.09375 198.480469 55.441406 C 198.445312 55.789062 198.476562 56.128906 198.574219 56.464844 C 198.675781 56.800781 198.832031 57.101562 199.054688 57.375 C 204.847656 64.535156 209.546875 72.355469 213.144531 80.835938 C 214.316406 83.59375 215.105469 85.894531 215.15625 88.175781 C 215.210938 90.492188 214.359375 92.578125 212.929688 93.625 C 210.945312 95.074219 207.96875 94.578125 205.898438 93.449219 C 203.257812 92 201.152344 89.464844 199.117188 87.011719 C 198.792969 86.617188 198.382812 86.339844 197.894531 86.183594 C 197.40625 86.027344 196.914062 86.015625 196.417969 86.144531 C 195.925781 86.277344 195.503906 86.53125 195.15625 86.90625 C 194.808594 87.285156 194.589844 87.722656 194.5 88.230469 C 194.351562 89.046875 194.078125 89.816406 193.671875 90.542969 C 193.265625 91.265625 192.753906 91.90625 192.132812 92.457031 C 191.515625 93.011719 190.820312 93.445312 190.054688 93.765625 C 189.289062 94.082031 188.488281 94.265625 187.660156 94.316406 C 186.832031 94.367188 186.019531 94.28125 185.21875 94.058594 C 184.417969 93.835938 183.675781 93.484375 182.996094 93.011719 C 182.3125 92.539062 181.726562 91.96875 181.238281 91.296875 C 180.746094 90.628906 180.378906 89.894531 180.136719 89.101562 C 180.046875 88.8125 179.914062 88.550781 179.734375 88.308594 C 179.558594 88.066406 179.34375 87.859375 179.09375 87.691406 C 178.84375 87.523438 178.574219 87.402344 178.285156 87.328125 C 177.992188 87.25 177.699219 87.226562 177.398438 87.25 C 177.097656 87.273438 176.8125 87.351562 176.539062 87.472656 C 176.261719 87.597656 176.019531 87.761719 175.800781 87.96875 C 175.582031 88.175781 175.40625 88.414062 175.269531 88.683594 C 175.132812 88.953125 175.046875 89.234375 175.007812 89.53125 C 174.65625 92.21875 171.484375 94.019531 168.875 93.964844 C 165.007812 93.878906 161.828125 91.046875 160.273438 89.367188 C 158.929688 87.910156 155.789062 83.285156 155.410156 82.703125 C 154.789062 81.746094 154.148438 80.757812 153.484375 79.789062 C 152.757812 78.730469 152.085938 77.738281 151.457031 76.804688 C 145.777344 68.402344 142.925781 64.183594 131.679688 59.585938 C 131.355469 59.453125 131.019531 59.386719 130.671875 59.390625 C 130.320312 59.390625 129.988281 59.460938 129.664062 59.59375 C 129.34375 59.730469 129.058594 59.921875 128.8125 60.167969 C 128.566406 60.417969 128.378906 60.703125 128.246094 61.027344 C 128.113281 61.347656 128.046875 61.683594 128.050781 62.035156 C 128.050781 62.382812 128.121094 62.71875 128.253906 63.039062 C 128.390625 63.363281 128.582031 63.648438 128.828125 63.890625 C 129.078125 64.136719 129.363281 64.328125 129.683594 64.460938 C 139.453125 68.457031 141.535156 71.53125 147.09375 79.753906 C 147.730469 80.699219 148.40625 81.703125 149.140625 82.769531 C 149.765625 83.683594 151.074219 85.691406 151.113281 85.753906 C 150.121094 87.035156 149.207031 88.371094 148.375 89.757812 C 142.023438 100.3125 140.300781 111.96875 139.925781 126.027344 C 137.269531 126.109375 134.734375 126.195312 132.347656 126.292969 C 106.523438 127.34375 104.753906 128.988281 103.699219 129.972656 C 102.421875 131.160156 100.492188 132.957031 96.101562 170.328125 C 93.601562 191.636719 90.964844 218.742188 88.640625 242.65625 C 86.683594 262.789062 84.832031 281.804688 83.460938 293.152344 C 83.417969 293.527344 83.449219 293.894531 83.5625 294.253906 C 83.675781 294.613281 83.855469 294.933594 84.105469 295.214844 C 84.355469 295.496094 84.652344 295.714844 84.996094 295.871094 C 85.339844 296.023438 85.699219 296.101562 86.078125 296.101562 L 86.085938 296.101562 L 288.683594 295.304688 C 289.058594 295.300781 289.417969 295.222656 289.761719 295.066406 C 290.105469 294.910156 290.402344 294.691406 290.652344 294.40625 C 290.898438 294.125 291.078125 293.800781 291.191406 293.441406 C 291.300781 293.078125 291.332031 292.710938 291.285156 292.335938 C 290.125 283.230469 288.53125 268.972656 286.683594 252.464844 Z M 152.886719 92.46875 C 153.324219 91.746094 153.785156 91.042969 154.265625 90.359375 C 154.933594 91.242188 155.640625 92.109375 156.40625 92.941406 C 160.0625 96.902344 164.449219 99.136719 168.757812 99.230469 C 170.480469 99.265625 172.128906 98.945312 173.707031 98.261719 C 175.285156 97.582031 176.652344 96.605469 177.808594 95.332031 C 178.449219 96.039062 179.15625 96.664062 179.933594 97.214844 C 180.714844 97.765625 181.542969 98.222656 182.421875 98.589844 C 183.300781 98.957031 184.207031 99.222656 185.148438 99.386719 C 186.085938 99.554688 187.03125 99.617188 187.980469 99.574219 C 192.019531 99.328125 195.730469 96.988281 197.894531 93.644531 C 199.484375 95.410156 201.308594 96.886719 203.367188 98.070312 C 205.386719 99.195312 207.554688 99.769531 209.867188 99.789062 C 212.132812 99.824219 214.1875 99.1875 216.035156 97.878906 C 218.878906 95.804688 220.519531 92.132812 220.421875 88.058594 C 220.421875 87.988281 220.417969 87.917969 220.414062 87.851562 C 222.824219 90.703125 224.546875 93.917969 225.582031 97.503906 C 227.757812 105.046875 228.816406 113.46875 229.140625 126.101562 C 216.332031 125.742188 201.3125 125.523438 186.335938 125.484375 C 171.394531 125.449219 157.242188 125.585938 145.203125 125.882812 C 145.742188 107.949219 148.671875 99.476562 152.886719 92.46875 Z M 89.042969 290.820312 C 90.363281 279.355469 92.003906 262.464844 93.882812 243.164062 C 96.152344 219.816406 98.726562 193.351562 101.171875 172.316406 C 104.667969 142.300781 106.5625 135.417969 107.320312 133.882812 C 108.414062 133.472656 113.277344 132.300781 133.824219 131.503906 C 135.742188 131.429688 137.753906 131.363281 139.84375 131.296875 C 139.800781 138.257812 140 146.070312 140.222656 154.949219 L 140.273438 157.03125 C 140.28125 157.375 140.355469 157.703125 140.492188 158.019531 C 140.628906 158.332031 140.820312 158.609375 141.066406 158.851562 C 141.3125 159.089844 141.59375 159.277344 141.914062 159.40625 C 142.230469 159.535156 142.5625 159.597656 142.90625 159.601562 L 142.972656 159.601562 C 143.320312 159.589844 143.65625 159.515625 143.972656 159.375 C 144.292969 159.234375 144.574219 159.035156 144.8125 158.78125 C 145.054688 158.527344 145.238281 158.238281 145.363281 157.914062 C 145.488281 157.589844 145.546875 157.25 145.539062 156.902344 L 145.488281 154.820312 C 145.261719 145.90625 145.066406 138.078125 145.113281 131.152344 C 157.160156 130.851562 171.386719 130.710938 186.347656 130.75 C 202.695312 130.792969 217.222656 131.023438 229.238281 131.367188 C 229.292969 136.226562 229.277344 141.421875 229.253906 147.304688 C 229.246094 149.953125 229.238281 152.707031 229.234375 155.566406 C 229.234375 155.914062 229.300781 156.253906 229.433594 156.574219 C 229.566406 156.898438 229.757812 157.183594 230.003906 157.429688 C 230.25 157.675781 230.535156 157.867188 230.855469 158 C 231.179688 158.136719 231.515625 158.203125 231.863281 158.203125 L 231.867188 158.203125 C 232.214844 158.203125 232.550781 158.136719 232.875 158.003906 C 233.195312 157.871094 233.480469 157.679688 233.726562 157.433594 C 233.976562 157.1875 234.164062 156.902344 234.300781 156.578125 C 234.433594 156.257812 234.5 155.921875 234.5 155.574219 C 234.503906 152.714844 234.511719 149.964844 234.523438 147.320312 C 234.542969 141.507812 234.558594 136.359375 234.507812 131.527344 C 251.371094 132.089844 262.324219 132.878906 264.996094 133.628906 C 265.867188 135.398438 268.085938 143.214844 272.480469 176.824219 C 275.542969 200.226562 278.820312 229.515625 281.449219 253.050781 C 283.113281 267.894531 284.570312 280.921875 285.691406 290.046875 Z M 89.042969 290.820312 "/></g><g clip-rule="nonzero" clip-path="url(#84920830a4)"><path style=" stroke:none;fill-rule:evenodd;fill:#b000eb;fill-opacity:1;" d="M 206.722656 149.753906 C 207.480469 149.753906 208.148438 149.460938 208.640625 148.964844 C 209.136719 148.472656 209.425781 147.800781 209.425781 147.042969 C 209.425781 146.285156 209.136719 145.617188 208.640625 145.121094 C 208.148438 144.625 207.480469 144.335938 206.722656 144.335938 C 205.96875 144.335938 205.300781 144.625 204.804688 145.121094 C 204.3125 145.617188 204.023438 146.285156 204.023438 147.042969 C 204.023438 147.800781 204.3125 148.472656 204.804688 148.964844 C 205.300781 149.460938 205.96875 149.753906 206.722656 149.753906 Z M 160.675781 235.253906 L 178.339844 235.253906 L 173.574219 243.558594 L 146.378906 243.558594 L 149.953125 237.324219 L 175.664062 192.664062 L 176.539062 191.148438 L 181.128906 183.195312 L 185.890625 174.894531 L 194.085938 160.675781 L 199.167969 151.820312 C 198.296875 150.421875 197.773438 148.792969 197.773438 147.015625 C 197.773438 144.539062 198.761719 142.324219 200.390625 140.691406 C 202.015625 139.0625 204.226562 138.070312 206.695312 138.070312 C 209.164062 138.070312 211.371094 139.0625 213 140.691406 C 214.625 142.324219 215.613281 144.539062 215.613281 147.015625 C 215.613281 149.492188 214.625 151.703125 213 153.335938 C 211.371094 154.96875 209.164062 155.957031 206.695312 155.957031 C 206.578125 155.957031 206.433594 155.957031 206.316406 155.957031 L 195.421875 174.894531 L 190.65625 183.195312 L 183.683594 195.285156 L 183.683594 195.316406 Z M 227.378906 235.253906 L 197.367188 235.253906 L 192.605469 243.558594 L 227.378906 243.558594 Z M 227.378906 235.253906 "/></g><g clip-rule="nonzero" clip-path="url(#7aa9a6edb0)"><path style=" stroke:none;fill-rule:evenodd;fill:#004de8;fill-opacity:1;" d="M 167.066406 268.699219 C 166.3125 268.699219 165.640625 268.988281 165.148438 269.484375 C 164.65625 269.980469 164.363281 270.648438 164.363281 271.40625 C 164.363281 272.164062 164.65625 272.835938 165.148438 273.332031 C 165.640625 273.824219 166.3125 274.117188 167.066406 274.117188 C 167.820312 274.117188 168.488281 273.824219 168.984375 273.332031 C 169.476562 272.835938 169.769531 272.164062 169.769531 271.40625 C 169.769531 270.648438 169.476562 269.980469 168.984375 269.484375 C 168.488281 268.988281 167.792969 268.699219 167.066406 268.699219 Z M 200.1875 174.894531 L 227.378906 174.894531 L 223.808594 181.128906 L 197.222656 227.300781 L 192.632812 235.253906 L 187.839844 243.558594 L 174.5625 266.601562 C 175.433594 268 175.957031 269.628906 175.957031 271.40625 C 175.957031 273.882812 174.96875 276.097656 173.339844 277.730469 C 171.714844 279.359375 169.507812 280.351562 167.035156 280.351562 C 164.566406 280.351562 162.359375 279.359375 160.734375 277.730469 C 159.105469 276.097656 158.117188 273.882812 158.117188 271.40625 C 158.117188 268.929688 159.105469 266.71875 160.734375 265.085938 C 162.359375 263.453125 164.566406 262.464844 167.035156 262.464844 C 167.152344 262.464844 167.296875 262.464844 167.414062 262.464844 L 178.308594 243.527344 L 183.074219 235.226562 L 187.054688 228.320312 L 188.59375 225.613281 L 190.019531 223.136719 L 190.019531 223.164062 L 213.027344 183.195312 L 195.363281 183.195312 Z M 167.066406 183.195312 L 176.390625 183.195312 L 181.15625 174.894531 L 146.378906 174.894531 L 146.378906 183.195312 Z M 167.066406 183.195312 "/></g><g clip-rule="nonzero" clip-path="url(#be5f5f05e7)"><g clip-rule="nonzero" clip-path="url(#42c41c9ccf)"><path style=" stroke:none;fill-rule:nonzero;fill:#004de8;fill-opacity:1;" d="M 160.160156 190.910156 L 129.441406 190.910156 L 129.441406 167.152344 L 160.160156 167.152344 Z M 160.160156 190.910156 "/></g></g></g></svg>