<svg xmlns="http://www.w3.org/2000/svg" xmlns:xlink="http://www.w3.org/1999/xlink" width="500" zoomAndPan="magnify" viewBox="0 0 375 374.999991" height="500" preserveAspectRatio="xMidYMid meet" version="1.2"><defs><clipPath id="471f3c0316"><path d="M 6.921875 6.921875 L 368.078125 6.921875 L 368.078125 368.078125 L 6.921875 368.078125 Z M 6.921875 6.921875 "/></clipPath><clipPath id="3e9fa9702b"><path d="M 187.5 6.921875 C 87.769531 6.921875 6.921875 87.769531 6.921875 187.5 C 6.921875 287.230469 87.769531 368.078125 187.5 368.078125 C 287.230469 368.078125 368.078125 287.230469 368.078125 187.5 C 368.078125 87.769531 287.230469 6.921875 187.5 6.921875 Z M 187.5 6.921875 "/></clipPath><clipPath id="8921539dab"><path d="M 119.648438 37.054688 L 290.84375 37.054688 L 290.84375 261 L 119.648438 261 Z M 119.648438 37.054688 "/></clipPath><clipPath id="9ef5d755e6"><path d="M 119.648438 115 L 290.84375 115 L 290.84375 338.683594 L 119.648438 338.683594 Z M 119.648438 115 "/></clipPath><clipPath id="0a783c7ae6"><path d="M 83.714844 98.617188 L 148.710938 98.617188 L 148.710938 148.734375 L 83.714844 148.734375 Z M 83.714844 98.617188 "/></clipPath><clipPath id="244687e7ce"><path d="M 83.839844 123.675781 L 116.277344 148.734375 L 116.277344 132.519531 L 148.710938 132.519531 L 148.710938 114.835938 L 116.277344 114.835938 L 116.277344 98.617188 Z M 83.839844 123.675781 "/></clipPath></defs><g id="d9acf4456e"><g clip-rule="nonzero" clip-path="url(#471f3c0316)"><g clip-rule="nonzero" clip-path="url(#3e9fa9702b)"><path style=" stroke:none;fill-rule:nonzero;fill:#ffffff;fill-opacity:1;" d="M 6.921875 6.921875 L 368.078125 6.921875 L 368.078125 368.078125 L 6.921875 368.078125 Z M 6.921875 6.921875 "/></g></g><g clip-rule="nonzero" clip-path="url(#8921539dab)"><path style=" stroke:none;fill-rule:evenodd;fill:#b000eb;fill-opacity:1;" d="M 247.183594 62.015625 C 248.78125 62.015625 250.195312 61.398438 251.238281 60.347656 C 252.28125 59.300781 252.894531 57.882812 252.894531 56.28125 C 252.894531 54.675781 252.28125 53.257812 251.238281 52.210938 C 250.195312 51.160156 248.78125 50.542969 247.183594 50.542969 C 245.589844 50.542969 244.175781 51.160156 243.132812 52.210938 C 242.089844 53.257812 241.472656 54.675781 241.472656 56.28125 C 241.472656 57.882812 242.089844 59.300781 243.132812 60.347656 C 244.175781 61.398438 245.589844 62.015625 247.183594 62.015625 Z M 149.859375 242.996094 L 187.191406 242.996094 L 177.121094 260.570312 L 119.648438 260.570312 L 127.199219 247.375 L 181.542969 152.84375 L 183.386719 149.636719 L 193.085938 132.804688 L 203.15625 115.230469 L 220.472656 85.136719 L 231.21875 66.390625 C 229.378906 63.433594 228.273438 59.980469 228.273438 56.21875 C 228.273438 50.976562 230.359375 46.289062 233.796875 42.835938 C 237.238281 39.382812 241.902344 37.289062 247.125 37.289062 C 252.34375 37.289062 257.007812 39.382812 260.449219 42.835938 C 263.886719 46.289062 265.972656 50.976562 265.972656 56.21875 C 265.972656 61.460938 263.886719 66.144531 260.449219 69.597656 C 257.007812 73.050781 252.34375 75.148438 247.125 75.148438 C 246.878906 75.148438 246.570312 75.148438 246.324219 75.148438 L 223.296875 115.230469 L 213.226562 132.804688 L 198.492188 158.394531 L 198.492188 158.457031 Z M 290.84375 242.996094 L 227.414062 242.996094 L 217.34375 260.570312 L 290.84375 260.570312 Z M 290.84375 242.996094 "/></g><g clip-rule="nonzero" clip-path="url(#9ef5d755e6)"><path style=" stroke:none;fill-rule:evenodd;fill:#004de8;fill-opacity:1;" d="M 163.367188 313.785156 C 161.769531 313.785156 160.359375 314.402344 159.316406 315.449219 C 158.269531 316.5 157.65625 317.917969 157.65625 319.519531 C 157.65625 321.125 158.269531 322.542969 159.316406 323.589844 C 160.359375 324.636719 161.769531 325.253906 163.367188 325.253906 C 164.964844 325.253906 166.375 324.636719 167.421875 323.589844 C 168.464844 322.542969 169.078125 321.125 169.078125 319.519531 C 169.078125 317.917969 168.464844 316.5 167.421875 315.449219 C 166.375 314.402344 164.902344 313.785156 163.367188 313.785156 Z M 233.367188 115.230469 L 290.84375 115.230469 L 283.289062 128.425781 L 227.105469 226.164062 L 217.402344 242.996094 L 207.273438 260.570312 L 179.210938 309.347656 C 181.050781 312.304688 182.15625 315.757812 182.15625 319.519531 C 182.15625 324.761719 180.070312 329.449219 176.632812 332.902344 C 173.191406 336.355469 168.527344 338.453125 163.304688 338.453125 C 158.085938 338.453125 153.421875 336.355469 149.980469 332.902344 C 146.542969 329.449219 144.457031 324.761719 144.457031 319.519531 C 144.457031 314.277344 146.542969 309.59375 149.980469 306.140625 C 153.421875 302.6875 158.085938 300.589844 163.304688 300.589844 C 163.550781 300.589844 163.859375 300.589844 164.105469 300.589844 L 187.132812 260.507812 L 197.203125 242.933594 L 205.613281 228.320312 L 208.867188 222.585938 L 211.878906 217.34375 L 211.878906 217.40625 L 260.507812 132.804688 L 223.175781 132.804688 Z M 163.367188 132.804688 L 183.078125 132.804688 L 193.148438 115.230469 L 119.648438 115.230469 L 119.648438 132.804688 Z M 163.367188 132.804688 "/></g><g clip-rule="nonzero" clip-path="url(#0a783c7ae6)"><g clip-rule="nonzero" clip-path="url(#244687e7ce)"><path style=" stroke:none;fill-rule:nonzero;fill:#004de8;fill-opacity:1;" d="M 148.710938 148.734375 L 83.910156 148.734375 L 83.910156 98.617188 L 148.710938 98.617188 Z M 148.710938 148.734375 "/></g></g></g></svg>